<svg width="256" height="256" viewBox="0 0 256 256" fill="none" xmlns="http://www.w3.org/2000/svg">
  <rect width="256" height="256" rx="48" fill="#F8FDFF"/>
  <path d="M130.5 23.5C149.4 35.3 159.7 51.5 161.1 71.9L130.5 89.7L99.9 71.9C101.3 51.5 111.6 35.3 130.5 23.5Z" fill="url(#top)"/>
  <path d="M129.9 37.3L146.8 47.2V66.9L129.9 76.7L113 66.9V47.2L129.9 37.3Z" fill="#EAFBFF" opacity="0.35"/>
  <path d="M3.5 66.5L101.4 123.1L73.5 139.3L16.6 106.4C7.9 101.4 2.7 92.4 2.7 82.3V68.3C2.7 66.8 2.7 65.8 3.5 66.5Z" fill="url(#leftWing)"/>
  <path d="M252.5 66.5L154.6 123.1L182.5 139.3L239.4 106.4C248.1 101.4 253.3 92.4 253.3 82.3V68.3C253.3 66.8 253.3 65.8 252.5 66.5Z" fill="url(#rightWing)"/>
  <path d="M20.8 125.4L128 187.3L235.2 125.4V158.2L128 220.1L20.8 158.2V125.4Z" fill="url(#middleBand)"/>
  <path d="M52.5 170.8L128 214.4L203.5 170.8V203.3L128 246.9L52.5 203.3V170.8Z" fill="url(#bottomBand)"/>
  <path d="M22.5 117.6L128 178.5L233.5 117.6" stroke="#62DAF7" stroke-width="17" stroke-linecap="round" stroke-linejoin="round"/>
  <path d="M52.9 163.7L128 207L203.1 163.7" stroke="#28AEEB" stroke-width="15" stroke-linecap="round" stroke-linejoin="round"/>
  <path d="M71.2 86.1L128 118.8L184.8 86.1" stroke="#EAFBFF" stroke-width="8" stroke-linecap="round" stroke-linejoin="round" opacity="0.68"/>
  <path d="M95.4 222.8L128 241.6L160.6 222.8" stroke="#071B5C" stroke-width="7" stroke-linecap="round" stroke-linejoin="round" opacity="0.45"/>
  <defs>
    <linearGradient id="top" x1="103" y1="30" x2="158" y2="87" gradientUnits="userSpaceOnUse">
      <stop stop-color="#04D5F5"/>
      <stop offset="0.52" stop-color="#108BE2"/>
      <stop offset="1" stop-color="#052B8D"/>
    </linearGradient>
    <linearGradient id="leftWing" x1="0" y1="69" x2="100" y2="139" gradientUnits="userSpaceOnUse">
      <stop stop-color="#04D3F2"/>
      <stop offset="0.48" stop-color="#1190DF"/>
      <stop offset="1" stop-color="#072B91"/>
    </linearGradient>
    <linearGradient id="rightWing" x1="256" y1="69" x2="155" y2="139" gradientUnits="userSpaceOnUse">
      <stop stop-color="#061D7C"/>
      <stop offset="0.52" stop-color="#0B72D2"/>
      <stop offset="1" stop-color="#0FD4F2"/>
    </linearGradient>
    <linearGradient id="middleBand" x1="20" y1="126" x2="235" y2="219" gradientUnits="userSpaceOnUse">
      <stop stop-color="#062D9B"/>
      <stop offset="0.5" stop-color="#0C8BE1"/>
      <stop offset="1" stop-color="#03D1F4"/>
    </linearGradient>
    <linearGradient id="bottomBand" x1="53" y1="171" x2="203" y2="247" gradientUnits="userSpaceOnUse">
      <stop stop-color="#03C8F0"/>
      <stop offset="0.52" stop-color="#0B77D5"/>
      <stop offset="1" stop-color="#061E7E"/>
    </linearGradient>
  </defs>
</svg>
