<svg width="1600" height="1000" viewBox="0 0 1600 1000" fill="none" xmlns="http://www.w3.org/2000/svg">
  <defs>
    <linearGradient id="g0" x1="120" y1="80" x2="1480" y2="920" gradientUnits="userSpaceOnUse">
      <stop stop-color="#071223"/>
      <stop offset="0.5" stop-color="#071327"/>
      <stop offset="1" stop-color="#050A14"/>
    </linearGradient>
    <radialGradient id="r1" cx="0" cy="0" r="1" gradientUnits="userSpaceOnUse" gradientTransform="translate(520 280) rotate(55) scale(960 720)">
      <stop stop-color="#38BDF8" stop-opacity="0.58"/>
      <stop offset="1" stop-color="#38BDF8" stop-opacity="0"/>
    </radialGradient>
    <radialGradient id="r2" cx="0" cy="0" r="1" gradientUnits="userSpaceOnUse" gradientTransform="translate(1160 320) rotate(120) scale(940 700)">
      <stop stop-color="#A78BFA" stop-opacity="0.45"/>
      <stop offset="1" stop-color="#A78BFA" stop-opacity="0"/>
    </radialGradient>
    <radialGradient id="r3" cx="0" cy="0" r="1" gradientUnits="userSpaceOnUse" gradientTransform="translate(960 840) rotate(10) scale(980 760)">
      <stop stop-color="#4FD1C5" stop-opacity="0.22"/>
      <stop offset="1" stop-color="#4FD1C5" stop-opacity="0"/>
    </radialGradient>
    <filter id="blur" x="-40" y="-40" width="1680" height="1080" filterUnits="userSpaceOnUse" color-interpolation-filters="sRGB">
      <feGaussianBlur stdDeviation="18"/>
    </filter>
  </defs>

  <rect width="1600" height="1000" fill="url(#g0)"/>
  <g filter="url(#blur)">
    <ellipse cx="520" cy="320" rx="650" ry="460" fill="url(#r1)"/>
    <ellipse cx="1160" cy="360" rx="640" ry="460" fill="url(#r2)"/>
    <ellipse cx="960" cy="840" rx="720" ry="540" fill="url(#r3)"/>
  </g>

  <!-- circuit lines -->
  <path d="M110 220H520C560 220 592 252 592 292V420" stroke="rgba(255,255,255,0.10)" stroke-width="10" stroke-linecap="round"/>
  <path d="M520 220V160" stroke="rgba(56,189,248,0.16)" stroke-width="10" stroke-linecap="round"/>
  <path d="M592 420H860C900 420 932 452 932 492V640" stroke="rgba(167,139,250,0.14)" stroke-width="10" stroke-linecap="round"/>
  <path d="M932 640H1280" stroke="rgba(255,255,255,0.08)" stroke-width="10" stroke-linecap="round"/>
  <circle cx="110" cy="220" r="18" fill="rgba(56,189,248,0.34)"/>
  <circle cx="520" cy="160" r="14" fill="rgba(167,139,250,0.28)"/>
  <circle cx="1280" cy="640" r="16" fill="rgba(79,209,197,0.22)"/>
</svg>

