<svg width="1600" height="1000" viewBox="0 0 1600 1000" fill="none" xmlns="http://www.w3.org/2000/svg">
  <defs>
    <linearGradient id="g0" x1="140" y1="60" x2="1460" y2="940" gradientUnits="userSpaceOnUse">
      <stop stop-color="#071124"/>
      <stop offset="0.48" stop-color="#08112A"/>
      <stop offset="1" stop-color="#050913"/>
    </linearGradient>
    <radialGradient id="r1" cx="0" cy="0" r="1" gradientUnits="userSpaceOnUse" gradientTransform="translate(520 260) rotate(45) scale(900 660)">
      <stop stop-color="#7C8CFF" stop-opacity="0.62"/>
      <stop offset="1" stop-color="#7C8CFF" stop-opacity="0"/>
    </radialGradient>
    <radialGradient id="r2" cx="0" cy="0" r="1" gradientUnits="userSpaceOnUse" gradientTransform="translate(1180 420) rotate(135) scale(860 640)">
      <stop stop-color="#4FD1C5" stop-opacity="0.36"/>
      <stop offset="1" stop-color="#4FD1C5" stop-opacity="0"/>
    </radialGradient>
    <filter id="blur" x="-40" y="-40" width="1680" height="1080" filterUnits="userSpaceOnUse" color-interpolation-filters="sRGB">
      <feGaussianBlur stdDeviation="18"/>
    </filter>
  </defs>

  <rect width="1600" height="1000" fill="url(#g0)"/>
  <g filter="url(#blur)">
    <ellipse cx="560" cy="320" rx="620" ry="440" fill="url(#r1)"/>
    <ellipse cx="1160" cy="420" rx="580" ry="420" fill="url(#r2)"/>
  </g>

  <!-- "speed" streaks -->
  <path d="M-60 640C260 520 460 460 720 520C980 580 1120 720 1380 700C1540 688 1660 650 1700 630" stroke="rgba(255,255,255,0.10)" stroke-width="84" stroke-linecap="round" opacity="0.32"/>
  <path d="M-40 560C240 440 520 400 760 460C1000 520 1180 650 1400 630C1540 616 1640 580 1700 555" stroke="rgba(124,140,255,0.22)" stroke-width="52" stroke-linecap="round" opacity="0.33"/>
  <path d="M-20 720C290 610 520 560 780 610C1020 658 1180 800 1420 770C1560 754 1650 720 1700 700" stroke="rgba(79,209,197,0.14)" stroke-width="62" stroke-linecap="round" opacity="0.25"/>
</svg>

