<svg xmlns="http://www.w3.org/2000/svg" viewBox="0 0 64 64" role="img" aria-label="MyReport logo">
  <rect width="64" height="64" rx="14" fill="#0F172A"/>
  <defs>
    <linearGradient id="myreportMark" x1="8" y1="10" x2="56" y2="54" gradientUnits="userSpaceOnUse">
      <stop stop-color="#67E8F9" stop-opacity="0.95"/>
      <stop offset="0.55" stop-color="#A5B4FC" stop-opacity="0.9"/>
      <stop offset="1" stop-color="#FDE68A" stop-opacity="0.85"/>
    </linearGradient>
  </defs>
  <path
    d="M12 49.3333V14.6667C12 13.2 13.2 12 14.6667 12H20.2667C21.7333 12 22.9333 13.2 22.9333 14.6667V31.2L28.2667 25.3333C28.7733 24.8 29.4667 24.48 30.1867 24.48H33.9733C36.2667 24.48 37.44 27.2267 35.84 28.8267L27.9733 36.6933L36.5067 45.9733C38.1067 47.7067 36.88 50.5067 34.5333 50.5067H29.3333C28.5867 50.5067 27.8667 50.1867 27.36 49.6533L21.2267 42.72V48.5867C21.2267 50.0533 20.0267 51.2533 18.56 51.2533H14.6667C13.2 51.2533 12 50.0533 12 48.5867Z"
    fill="url(#myreportMark)"
    opacity="0.95"
  />
  <path
    d="M37.3333 49.3333V21.8667C37.3333 20.4 38.5333 19.2 40 19.2H44.2667C45.7333 19.2 46.9333 20.4 46.9333 21.8667V25.0667C49.4667 22 52.8 20.4 56.9333 20.4C58.4 20.4 59.6 21.6 59.6 23.0667V27.6C59.6 29.0667 58.4 30.2667 56.9333 30.2667C53.7333 30.2667 51.28 31.1467 49.5733 32.88C47.8667 34.6133 47.0133 37.0933 47.0133 40.32V49.28C47.0133 50.7467 45.8133 51.9467 44.3467 51.9467H40C38.5333 51.9467 37.3333 50.7467 37.3333 49.3333Z"
    fill="url(#myreportMark)"
    opacity="0.85"
  />
  <path d="M10.6667 54.6667H55.4667" stroke="rgba(255,255,255,0.22)" stroke-width="3.7333" stroke-linecap="round"/>
</svg>
