<svg xmlns="http://www.w3.org/2000/svg" viewBox="0 0 64 64" role="img" aria-label="MyReport logo">
  <defs>
    <linearGradient id="myreportLogoBg" x1="8" y1="8" x2="56" y2="56" gradientUnits="userSpaceOnUse">
      <stop stop-color="#A5F3FC"/>
      <stop offset="0.5" stop-color="#C7D2FE"/>
      <stop offset="1" stop-color="#DDD6FE"/>
    </linearGradient>
  </defs>
  <rect width="64" height="64" rx="16" fill="url(#myreportLogoBg)"/>
  <path
    d="M18 30.5V47.5C18 49.433 19.567 51 21.5 51H42.5C44.433 51 46 49.433 46 47.5V30.5"
    fill="none"
    stroke="#0F172A"
    stroke-width="4"
    stroke-linecap="round"
    stroke-linejoin="round"
  />
  <path
    d="M14 24.5L18 13H46L50 24.5"
    fill="none"
    stroke="#0F172A"
    stroke-width="4"
    stroke-linecap="round"
    stroke-linejoin="round"
  />
  <path
    d="M18 25H46"
    fill="none"
    stroke="#0F172A"
    stroke-width="4"
    stroke-linecap="round"
  />
  <path
    d="M26 51V39C26 37.895 26.895 37 28 37H36C37.105 37 38 37.895 38 39V51"
    fill="none"
    stroke="#0F172A"
    stroke-width="4"
    stroke-linecap="round"
    stroke-linejoin="round"
  />
  <path
    d="M22 25C22 29.418 25.582 33 30 33C34.418 33 38 29.418 38 25"
    fill="none"
    stroke="#0F172A"
    stroke-width="4"
    stroke-linecap="round"
  />
</svg>
